<?xml version="1.0" standalone="no"?>
<!DOCTYPE svg PUBLIC "-//W3C//DTD SVG 1.1//EN" "http://www.w3.org/Graphics/SVG/1.1/DTD/svg11.dtd" >
<svg>
<metadata>
Created by FontForge 20110222 at Mon Mar  7 04:44:53 2011
 By www-data
Creator: Francis X Mahoney
</metadata>
<defs>
<font id="GordonRegular" horiz-adv-x="416" >
  <font-face 
    font-family="Gordon"
    font-weight="5"
    font-stretch="normal"
    units-per-em="1000"
    panose-1="0 0 0 0 0 0 0 0 0 0"
    ascent="731"
    descent="-269"
    x-height="382"
    cap-height="506"
    bbox="-196 -269 2747 728"
    underline-thickness="20"
    underline-position="-212"
    unicode-range="U+0020-2122"
  />
    <missing-glyph />
    <glyph glyph-name=".null" unicode="&#xd7;" horiz-adv-x="0" 
 />
    <glyph glyph-name=".null" unicode="&#x141;" horiz-adv-x="0" 
 />
    <glyph glyph-name=".null" unicode="&#xfd;" horiz-adv-x="0" 
 />
    <glyph glyph-name="space" unicode=" " horiz-adv-x="440" 
 />
    <glyph glyph-name="exclam" unicode="!" horiz-adv-x="196" 
d="M49 208v402h105v-402h-105zM59 90q17 17 44 17q28 0 43 -17t15 -41q0 -23 -14.5 -40t-43.5 -17q-28 0 -43.5 17t-15.5 40q0 24 15 41z" />
    <glyph glyph-name="quotedbl" unicode="&#x22;" horiz-adv-x="265" 
 />
    <glyph glyph-name="numbersign" unicode="#" 
 />
    <glyph glyph-name="dollar" unicode="$" 
 />
    <glyph glyph-name="percent" unicode="%" horiz-adv-x="666" 
 />
    <glyph glyph-name="ampersand" unicode="&#x26;" horiz-adv-x="499" 
 />
    <glyph glyph-name="quotesingle" unicode="'" horiz-adv-x="24" 
d="M-102 633l8 8q0 3 -16 3q-29 0 -49 -14t-23.5 -27t-6.5 -13t-5 14t-2 21q0 10 6 10q8 -1 15 -2q15 6 46.5 23.5t50.5 14.5l10 3q6 1 12 2.5t8 6.5l3 10q0 15 -26 15q-15 0 -26 -9.5t-19 -9.5q-5 0 -2.5 9t11.5 19.5t12 10.5q2 0 4.5 -5.5t4.5 -5.5h18q29 0 44.5 -5.5
t22.5 -27.5q7 -4 25.5 -16.5t33 -35.5t14.5 -46q0 -41 -43 -70.5t-90 -29.5q-31 0 -50 15t-19 46q0 18 6.5 38.5t21.5 47.5zM-85 639q-19 -28 -27.5 -50t-8.5 -40q0 -27 17.5 -40.5t45.5 -13.5q24 0 50 10.5t49 33t23 49.5q0 32 -27.5 58.5t-51.5 30.5q-19 3 -40 -11
t-30 -27zM-87 564q5 2 10 -4t5 -13t-6 -9q-13 -3 -13 17q0 7 4 9zM-69 573q5 2 10 -4t5 -13t-6 -9q-13 -3 -13 17q0 7 4 9zM-68 527q7 -1 10.5 2.5t4.5 6.5q1 7 4 4t5 -4q6 -3 11 -5h-9l-10 -8t-10 -4q-16 0 -16 6q0 3 10 2zM174 575q26 0 26 -17q0 -16 -21 -23.5t-33 -10
t-28 -4.5t-16 -14q0 -5 18 -11t18 -20q0 -16 -25 -16q-16 0 -36 10q-4 2 -8.5 -0.5t-10 -21.5t-16 -35t-43.5 -16h-12l-2 2q6 4 11 9q-2 12 -2 20q0 12 2 21t2 11q1 4 -2.5 5t-6.5 -2q-2 -1 -11.5 -5t-13.5 -4q-8 0 -8 6q0 8 12 25t31.5 25.5t39.5 17.5q28 16 56 33
q30 15 79 15zM4 430q-2 -1 -4 -1q-3 -17 6 -23q6 -4 20 5l6 10q-22 0 -28 9zM-5 505q-31 -26 -31 -37q5 -2 10 -3q12 4 24 16q2 2 1 9t-4 15zM3 504q-1 -4 2 -12t2 -14t3.5 -8.5t12.5 -2.5q13 0 23.5 5.5t9.5 12.5q-5 7 -9 15q1 2 4.5 4.5t4.5 0.5q14 -19 30 -27.5t29 -8.5
q12 0 12 7q0 9 -17.5 17t-41.5 14v8q18 14 36 14q42 0 65 7.5t23 16.5q0 17 -52 17q-27 0 -51.5 -16t-48.5 -31q-15 -4 -24.5 -6.5t-12.5 -12.5z" />
    <glyph glyph-name="parenleft" unicode="(" horiz-adv-x="249" 
 />
    <glyph glyph-name="parenright" unicode=")" horiz-adv-x="249" 
 />
    <glyph glyph-name="asterisk" unicode="*" horiz-adv-x="267" 
d="M140 612q18 0 25.5 -7.5t7.5 -22.5q0 -21 -14.5 -49.5t-18.5 -28.5q-11 17 -21.5 37.5t-10.5 41.5q0 14 7.5 21.5t24.5 7.5zM140 374q-18 0 -25.5 7.5t-7.5 22.5q0 21 14.5 49.5t18.5 28.5q6 0 19.5 -31t13.5 -47q0 -30 -33 -30zM36 552q11 19 26 19q21 0 46 -33.5
t22 -39.5q-4 -1 -9 -1.5t-11 -0.5q-40 0 -60 10t-20 26q0 8 6 20zM243 433q-11 -19 -26 -19q-20 0 -45 34t-23 39h12q33 0 60.5 -7t27.5 -28q0 -8 -6 -19zM35 432q-6 12 -6 20q0 24 33 29t67 6q2 -5 -22.5 -39t-45.5 -34q-15 0 -26 18zM242 552q6 -12 6 -20q0 -20 -25.5 -28
t-55.5 -8h-11.5t-7.5 2q-3 6 22 39.5t46 33.5q15 0 26 -19z" />
    <glyph glyph-name="plus" unicode="+" horiz-adv-x="437" 
 />
    <glyph glyph-name="comma" unicode="," horiz-adv-x="207" 
d="M100 99q23 0 34.5 -14t11.5 -37q0 -33 -22 -66.5t-42.5 -38.5t-26.5 -5q4 7 9 13q46 35 46 44t-22 9q-18 0 -30 15t-12 34q0 20 13 33t41 13z" />
    <glyph glyph-name="hyphen" unicode="-" horiz-adv-x="249" 
 />
    <glyph glyph-name="hyphen" unicode="&#xad;" horiz-adv-x="249" 
 />
    <glyph glyph-name="period" unicode="." horiz-adv-x="207" 
d="M96 100q23 0 36.5 -14.5t13.5 -35.5q0 -20 -13 -35t-37 -15t-36.5 14.5t-12.5 35.5q0 20 12.5 35t36.5 15z" />
    <glyph glyph-name="slash" unicode="/" horiz-adv-x="207" 
 />
    <glyph glyph-name="zero" unicode="0" 
d="M204 4q-91 0 -141.5 74.5t-50.5 177.5q0 102 50.5 177t141.5 75t141.5 -74.5t50.5 -177.5q0 -102 -50.5 -177t-141.5 -75zM204 408q-43 0 -67 -45t-24 -107t23.5 -107t67.5 -45q43 0 67.5 44.5t24.5 107.5q0 61 -24.5 106.5t-67.5 45.5z" />
    <glyph glyph-name="one" unicode="1" horiz-adv-x="155" 
d="M33 506h101v-496h-101v496z" />
    <glyph glyph-name="two" unicode="2" 
d="M30 510q166 0 247 -57t81 -140q0 -79 -66 -141t-162 -62h260v-100h-360q-1 1 -1 22v37v67.5t1 53.5q100 0 158.5 34.5t58.5 79.5q0 44 -56 75t-161 31v100z" />
    <glyph glyph-name="three" unicode="3" horiz-adv-x="358" 
d="M35 507q153 0 221 -42.5t68 -102.5q0 -38 -26 -68t-58 -30q-18 0 -18 -7q0 -9 21 -9q31 0 56.5 -28.5t25.5 -65.5q0 -59 -68 -100.5t-222 -41.5v98q87 0 133.5 13.5t46.5 33.5q0 47 -180 47v100q85 0 132.5 15.5t47.5 35.5q0 21 -47 36.5t-133 15.5v100z" />
    <glyph glyph-name="four" unicode="4" 
d="M74 215q-12 7 -14.5 34.5t-3.5 54.5v203h47t37 1q14 0 16 -1v-153q0 -8 1 -18t10.5 -19t17 -11.5t17.5 -2.5h6.5t3.5 1l64 -1v204l100 1v-498h-100v194h-120q-6 0 -11.5 -0.5t-11.5 -0.5q-25 0 -37 2.5t-22 9.5z" />
    <glyph glyph-name="five" unicode="5" 
d="M30 7v100q104 0 160.5 19t56.5 45t-58.5 47t-158.5 21v268h310v-100h-210v-80q97 0 162.5 -49.5t65.5 -113.5q0 -66 -81 -111.5t-247 -45.5z" />
    <glyph glyph-name="six" unicode="6" 
d="M345 302q29 -25 42.5 -54.5t13.5 -61.5q0 -69 -54.5 -122.5t-126.5 -53.5q-31 0 -60.5 11.5t-57.5 37.5t-41.5 60t-13.5 74q0 113 90.5 213.5t212.5 100.5q1 -6 1 -10q0 -16 -2 -42t-4 -49q-60 0 -96 -23q-23 -25 -45 -50q19 4 40 4q60 0 101 -35zM173 130q21 -21 49 -21
q30 0 52 22t22 51q0 27 -21.5 48.5t-49.5 21.5q-30 0 -52 -22t-22 -51q0 -27 22 -49z" />
    <glyph glyph-name="seven" unicode="7" 
 />
    <glyph glyph-name="eight" unicode="8" 
 />
    <glyph glyph-name="nine" unicode="9" 
d="M89 217q-29 25 -42.5 54.5t-13.5 61.5q0 69 54.5 122.5t126.5 53.5q31 0 60.5 -11.5t57.5 -37.5t41.5 -60t13.5 -74q0 -113 -90.5 -213.5t-212.5 -100.5q-1 6 -1 10q0 16 2 42t4 49q75 0 113 37l28 36q-17 -4 -40 -4q-61 0 -101 35zM261 389q-21 21 -49 21q-30 0 -52 -22
t-22 -51q0 -27 21.5 -48.5t49.5 -21.5q30 0 52 22t22 51q0 27 -22 49z" />
    <glyph glyph-name="colon" unicode=":" horiz-adv-x="207" 
d="M96 100q23 0 36.5 -14.5t13.5 -35.5q0 -20 -13 -35t-37 -15t-36.5 14.5t-12.5 35.5q0 20 12.5 35t36.5 15zM96 394q23 0 36.5 -14.5t13.5 -35.5q0 -20 -13 -35t-37 -15t-36.5 14.5t-12.5 35.5q0 20 12.5 35t36.5 15z" />
    <glyph glyph-name="semicolon" unicode=";" horiz-adv-x="207" 
d="M100 99q23 0 34.5 -14t11.5 -37q0 -33 -22 -66.5t-42.5 -38.5t-26.5 -5q4 7 9 13q46 35 46 44t-22 9q-18 0 -30 15t-12 34q0 20 13 33t41 13zM100 394q23 0 36.5 -14.5t13.5 -35.5q0 -20 -13 -35t-37 -15t-36.5 14.5t-12.5 35.5q0 20 12.5 35t36.5 15z" />
    <glyph glyph-name="less" unicode="&#x3c;" horiz-adv-x="437" 
 />
    <glyph glyph-name="equal" unicode="=" horiz-adv-x="437" 
 />
    <glyph glyph-name="greater" unicode="&#x3e;" horiz-adv-x="437" 
 />
    <glyph glyph-name="question" unicode="?" 
 />
    <glyph glyph-name="at" unicode="@" horiz-adv-x="760" 
 />
    <glyph glyph-name="A" unicode="A" horiz-adv-x="408" 
d="M268 80h-125l-19 -70h-106l109 404q14 58 31 75.5t47 17.5q47 0 60 -29t22 -64l108 -404h-108zM171 180h69l-35 125z" />
    <glyph glyph-name="B" unicode="B" horiz-adv-x="431" 
d="M29 10l-1 497h211q93 0 136 -36.5t43 -90.5q0 -45 -24 -82.5t-52 -37.5q-14 0 -14 -4q0 -6 16 -6q26 0 50 -36t24 -80q0 -53 -42 -88.5t-137 -35.5h-210zM250 110q34 0 52.5 13.5t18.5 32.5t-19 33.5t-52 14.5h-86v99l86 1q35 0 53.5 14.5t18.5 35.5q0 22 -18.5 37.5
t-53.5 15.5l-121 -1v-294q15 0 58.5 -1t62.5 -1z" />
    <glyph glyph-name="C" unicode="C" horiz-adv-x="541" 
d="M526 308l-113 -1q-12 35 -43 67.5t-89 32.5q-75 0 -116.5 -45t-41.5 -108t41.5 -108.5t116.5 -45.5q77 0 101.5 31t34.5 64h112q-20 -86 -83.5 -140.5t-164.5 -54.5q-121 0 -188.5 75t-67.5 178q0 104 66.5 179t189.5 75q90 0 158 -55t87 -144z" />
    <glyph glyph-name="D" unicode="D" horiz-adv-x="459" 
d="M29 10l-1 497h211q99 0 154.5 -74t55.5 -175t-55.5 -174.5t-154.5 -73.5h-210zM250 110q46 0 72 44t26 104q0 62 -25.5 105.5t-72.5 43.5l-121 -1v-296h121z" />
    <glyph glyph-name="E" unicode="E" horiz-adv-x="361" 
d="M338 406l-209 -1v-105h139v-100h-139v-91h118h91v-99h-309l-1 497h310v-101z" />
    <glyph glyph-name="F" unicode="F" horiz-adv-x="320" 
d="M338 407l-207 -1v-106h137v-100h-137v-190h-102l-1 497h310q2 0 4 -20.5t2 -41.5q0 -38 -6 -38z" />
    <glyph glyph-name="G" unicode="G" horiz-adv-x="541" 
d="M526 308l-113 -1q-12 35 -43 67.5t-89 32.5q-75 0 -117 -46t-42 -108t41.5 -107.5t115.5 -45.5q71 0 96.5 26t37.5 52h-208v102l324 -1q1 -8 1 -14.5v-13.5q0 -108 -72.5 -179.5t-176.5 -71.5q-121 0 -188.5 75t-67.5 178q0 104 66.5 179t189.5 75q90 0 158 -55t87 -144z
" />
    <glyph glyph-name="H" unicode="H" horiz-adv-x="420" 
d="M131 300h140v207h97v-497h-97v190h-140v-190h-102l-1 497h103v-207z" />
    <glyph glyph-name="I" unicode="I" horiz-adv-x="155" 
d="M33 506h101v-496h-101v496z" />
    <glyph glyph-name="J" unicode="J" horiz-adv-x="191" 
d="M197 179q0 -84 -45.5 -126.5t-149.5 -42.5v100q48 0 69 17.5t21 51.5v184t1 143h105z" />
    <glyph glyph-name="K" unicode="K" horiz-adv-x="350" 
d="M29 507h100v-144l83 144h116l-136 -237l150 -260h-116l-97 168v-168h-100v497z" />
    <glyph glyph-name="L" unicode="L" horiz-adv-x="354" 
d="M29 507h100v-397h212v-100h-312v497z" />
    <glyph glyph-name="M" unicode="M" horiz-adv-x="652" 
d="M331 217l57 210q14 58 31 75.5t47 17.5q41 0 55.5 -22.5t26.5 -70.5l110 -417h-108l-84 308l-84 -308h-105l-84 308l-82 -308h-106l110 417q14 58 31 75.5t47 17.5q47 0 60 -29t22 -64z" />
    <glyph glyph-name="N" unicode="N" horiz-adv-x="413" 
d="M289 241v266h103v-443q0 -38 -20.5 -48t-31.5 -10q-19 0 -36 12.5t-28 32.5l-146 261v-302h-102v433q0 40 17 52.5t33 12.5q33 0 55 -11t36 -37z" />
    <glyph glyph-name="O" unicode="O" horiz-adv-x="524" 
d="M448 433q74 -74 74 -180q0 -105 -75.5 -180.5t-177.5 -75.5t-179 77t-77 181q0 49 18.5 93.5t56 82t84.5 56t97 18.5t97 -18.5t82 -53.5zM376 362q-47 45 -109 45t-97.5 -35.5t-47 -63t-11.5 -54.5q0 -33 13.5 -61t48 -61t96.5 -33q31 0 57 10.5t52 36.5t38 52.5t12 54.5
q0 59 -52 109z" />
    <glyph glyph-name="P" unicode="P" horiz-adv-x="448" 
d="M238 204h-74v100l86 1q35 0 55 15.5t20 35.5q0 21 -19.5 36t-55.5 15l-121 -1v-396h-100l-1 497h211q94 0 146.5 -44.5t52.5 -105.5q0 -62 -52.5 -107.5t-147.5 -45.5z" />
    <glyph glyph-name="Q" unicode="Q" horiz-adv-x="518" 
d="M257 99l-81 81h148l38 -38q22 20 34 50.5t12 61.5q0 32 -10.5 58.5t-45.5 60.5t-97 34t-106 -45t-44 -109q0 -66 32.5 -98.5t63 -44t56.5 -11.5zM433 71l70 -71h-146l-13 13q-17 -6 -40.5 -10.5t-48.5 -4.5q-48 0 -92 17t-100.5 75t-56.5 164q0 107 53.5 160.5t100.5 72
t97 18.5t97 -18.5t82.5 -54t54 -81.5t18.5 -97q0 -53 -18.5 -99t-57.5 -84z" />
    <glyph glyph-name="R" unicode="R" horiz-adv-x="448" 
d="M430 10h-112q2 4 -25 67t-55 127h-74v100l86 1q35 0 55 15.5t20 35.5q0 21 -19.5 36t-55.5 15l-121 -1v-396h-100l-1 497h211q108 0 154.5 -42t46.5 -103q0 -34 -13 -63.5t-33 -40t-33 -18.5q-9 -9 -17 -18q3 -2 43 -107t43 -105z" />
    <glyph glyph-name="S" unicode="S" horiz-adv-x="275" 
d="M7 10v100q73 0 91.5 43.5t18.5 132.5q0 115 22.5 169.5t126.5 54.5v-115q-35 0 -45 -27t-10 -85v-46q0 -106 -37.5 -166.5t-166.5 -60.5z" />
    <glyph glyph-name="T" unicode="T" horiz-adv-x="350" 
d="M28 407v100h336v-100h-116v-397h-100v397h-120z" />
    <glyph glyph-name="U" unicode="U" horiz-adv-x="408" 
d="M28 162v345h105v-345q0 -31 22 -48t53 -17t53 17t22 48v345h105v-345q0 -78 -53 -121.5t-127 -43.5t-127 43.5t-53 121.5z" />
    <glyph glyph-name="V" unicode="V" horiz-adv-x="365" 
d="M90 93l-110 414h106l82 -305l84 305h108l-110 -414q-11 -47 -26.5 -70t-55.5 -23q-36 0 -51.5 24.5t-26.5 68.5z" />
    <glyph glyph-name="W" unicode="W" horiz-adv-x="624" 
d="M363 93l-57 210l-56 -210q-13 -49 -27 -71t-55 -22q-36 0 -51.5 24.5t-26.5 68.5l-110 414h106l82 -305l84 305h105l84 -305l84 305h108l-110 -414q-11 -47 -26.5 -70t-55.5 -23q-36 0 -51.5 24.5t-26.5 68.5z" />
    <glyph glyph-name="X" unicode="X" horiz-adv-x="432" 
d="M8 507h121l79 -134l79 134h121l-137 -238l149 -259h-121l-90 157l-92 -157h-120l149 259z" />
    <glyph glyph-name="Y" unicode="Y" horiz-adv-x="335" 
d="M122 122l-102 384h106l52 -192l54 192h108l-102 -384v-112h-118z" />
    <glyph glyph-name="Z" unicode="Z" horiz-adv-x="476" 
d="M83 506h305q28 0 38.5 -9.5t10.5 -22.5q0 -5 -0.5 -7.5t-1.5 -4.5l-198 -320q-1 -3 -7.5 -12.5t-6.5 -13.5q0 -6 10 -6h88h36h12q45 0 45 4v-104h-86h-132h-155q-9 0 -9 10q0 11 5 21.5t9 16.5l187 302q0 5 5 17t5 17q0 12 -21 12h-139v100z" />
    <glyph glyph-name="grave" unicode="`" horiz-adv-x="2795" 
d="M1180 395v-100q-48 0 -69 -17.5t-21 -51.5v-216h-105v216q0 84 45.5 126.5t149.5 42.5zM1395 395q36 0 75 -15v-105q-16 13 -31.5 16.5t-43.5 3.5q-43 0 -66 -25.5t-23 -61.5q0 -38 23.5 -65.5t65.5 -27.5q36 0 63 20.5t32 54.5v420h115v-420q0 -85 -62 -137.5
t-148 -52.5q-96 0 -148.5 58t-52.5 139t53 139.5t148 58.5zM2060 230q0 78 53 121.5t127 43.5t127 -43.5t53 -121.5v-220h-105v220q0 31 -21.5 48t-53.5 17q-30 0 -52.5 -17t-22.5 -48v-220h-105v220zM2470 119q73 0 99.5 29t26.5 68q0 12 -2 20t-4.5 17.5t-7.5 33.5t-5 44
q0 61 38 100t132 39v-110q-32 0 -45 -14.5t-13 -38.5q0 -17 5 -37t7 -29t3 -14.5t1 -17.5q0 -74 -55 -137t-180 -63v110zM2318 633l8 8q0 3 -16 3q-29 0 -49 -14t-23.5 -27t-6.5 -13t-5 14t-2 21q0 10 6 10q7 -1 15 -2q15 6 46.5 23.5t50.5 14.5l10 3q6 1 12 2.5t8 6.5l3 10
q0 15 -26 15q-15 0 -26 -9.5t-19 -9.5q-5 0 -2.5 9t11.5 19.5t12 10.5q2 0 4.5 -5.5t4.5 -5.5h18q29 0 44.5 -5.5t22.5 -27.5q7 -4 25.5 -16.5t33 -35.5t14.5 -46q0 -41 -43 -70.5t-90 -29.5q-31 0 -50 15t-19 46q0 18 6.5 38.5t21.5 47.5zM2335 639q-19 -28 -27.5 -50
t-8.5 -40q0 -27 17.5 -40.5t45.5 -13.5q24 0 50 10.5t49 33t23 49.5q0 32 -27.5 58.5t-51.5 30.5q-19 3 -40 -11t-30 -27zM2333 564q5 2 10 -4t5 -13t-6 -9q-13 -3 -13 17q0 7 4 9zM2351 573q5 2 10 -4t5 -13t-6 -9q-13 -3 -13 17q0 7 4 9zM2352 527q7 -1 10.5 2.5t4.5 6.5
q1 7 4 4t5 -4q8 -3 10 -4q-4 -1 -8 -1l-10 -8t-10 -4q-16 0 -16 6q0 3 10 2zM2594 575q26 0 26 -17q0 -16 -21 -23.5t-33 -10t-28 -4.5t-16 -14q0 -5 18 -11t18 -20q0 -16 -25 -16q-16 0 -36 10q-4 2 -8.5 -0.5t-10 -21.5t-16 -35t-43.5 -16h-12l-2 2q0 1 6 4t5 5
q-2 12 -2 20q0 12 2 21t2 11q1 4 -2.5 5t-6.5 -2q-2 -1 -11.5 -5t-13.5 -4q-8 0 -8 6q0 8 12 25t31.5 25.5t39.5 17.5q28 16 56 33q30 15 79 15zM2424 430q-2 -1 -4 -1q-3 -17 6 -23q6 -4 20 5l6 10q-22 0 -28 9zM2415 505q-31 -26 -31 -37q5 -2 10 -3q12 4 24 16q2 2 1 9
t-4 15zM2423 504q-1 -4 2 -12t2 -14t3.5 -8.5t12.5 -2.5q13 0 23.5 5.5t9.5 12.5q-5 7 -9 15q1 2 4.5 4.5t4.5 0.5q14 -19 30 -27.5t29 -8.5q12 0 12 7q0 9 -17.5 17t-41.5 14v8q18 14 36 14q42 0 65 7.5t23 16.5q0 17 -52 17q-27 0 -51.5 -16t-48.5 -31q-15 -4 -24.5 -6.5
t-12.5 -12.5zM540 308l-113 -1q-12 35 -43 67.5t-89 32.5q-75 0 -117 -46t-42 -108t41.5 -107.5t115.5 -45.5q71 0 96.5 26t37.5 52h-208v102l324 -1q1 -8 1 -14.5v-13.5q0 -108 -72.5 -179.5t-176.5 -71.5q-121 0 -188.5 75t-67.5 178q0 104 66.5 179t189.5 75
q90 0 158 -55t87 -144zM1678 336q59 62 147 62q42 0 80 -15.5t66 -45t42 -66t14 -73.5q0 -80 -41.5 -124.5t-79.5 -60t-81 -15.5q-89 0 -145.5 61t-56.5 139t55 138zM1751 129q29 -30 73 -30q45 0 71.5 28.5t26.5 69.5t-26.5 69.5t-71.5 28.5q-44 0 -71.5 -29.5t-27.5 -68.5
t26 -68zM619 336q59 62 147 62q42 0 80 -15.5t66 -45t42 -66t14 -73.5q0 -80 -41.5 -124.5t-79.5 -60t-81 -15.5q-89 0 -145.5 61t-56.5 139t55 138zM692 129q29 -30 73 -30q45 0 71.5 28.5t26.5 69.5t-26.5 69.5t-71.5 28.5q-44 0 -71.5 -29.5t-27.5 -68.5t26 -68z
M1493 -138l14 108h32l-14 -109q-3 -21 -19.5 -33.5t-39.5 -12.5q-15 0 -30 6l11 25q6 -3 11.5 -3.5t9.5 -1.5q23 0 25 21zM1697 -182l-10 152h30l4 -90l46 90h28l10 -98l38 98h32l-61 -153h-32l-13 91l-44 -90h-28zM2205 -183h-98l20 153h96l-4 -29h-61l-4 -33h63l-5 -29
h-61l-4 -33h62zM2286 -92q15 0 23 4t8 12q0 10 -9.5 13.5t-15.5 3.5h-22l-4 -33h20zM2298 -31q22 0 35 -14.5t11 -30.5q-4 -27 -27.5 -36.5t-24.5 -7.5l46 -64h-34l-42 61l-8 -61h-27l20 153h51zM1965 -184h-98l20 153h96l-4 -29h-61l-4 -33h63l-5 -29h-61l-4 -33h62z
M1644 -184h-98l20 153h96l-4 -29h-61l-4 -33h63l-5 -29h-61l-4 -33h62zM2073 -184h-84l20 153h33l-16 -124h50zM2459 -48l-5 -35q-8 13 -18 19.5t-20 6.5q-13 0 -13 -11t13.5 -25.5t19 -26.5t5.5 -23q0 -18 -13.5 -29.5t-33.5 -11.5q-22 0 -44 16l5 30q23 -20 40 -20
q16 0 16 14t-13.5 27.5t-19 25.5t-5.5 23q0 17 12.5 28.5t31.5 11.5q23 0 42 -20z" />
    <glyph glyph-name="a" unicode="a" horiz-adv-x="424" 
d="M131 129q29 -30 73 -30q45 0 71.5 28.5t26.5 69.5t-26.5 69.5t-71.5 28.5q-44 0 -71.5 -29.5t-27.5 -68.5t26 -68zM302 393h103v-387h-103v16q-44 -25 -96 -25q-43 0 -80 15.5t-80 61.5t-43 124t42 123.5t82 61.5t81 16q26 0 50.5 -7t43.5 -19v20z" />
    <glyph glyph-name="b" unicode="b" horiz-adv-x="448" 
d="M239 395q95 0 148 -58.5t53 -139.5q0 -80 -53 -138.5t-148 -58.5q-84 0 -147 53t-63 137v420h115v-420q5 -33 32.5 -54t62.5 -21q41 0 65 28t24 65q0 36 -22.5 61.5t-66.5 25.5q-26 0 -42.5 -3.5t-32.5 -16.5v105q20 8 37.5 11.5t37.5 3.5z" />
    <glyph glyph-name="c" unicode="c" horiz-adv-x="414" 
d="M288 152h112q-11 -50 -58 -102.5t-136 -52.5t-146 61.5t-57 139.5t57 139t145 61q43 0 80.5 -15.5t61.5 -42t35.5 -47t17.5 -47.5h-112l-12 19q-12 15 -31 23t-39 8q-46 0 -73.5 -30t-27.5 -69t20 -61t40 -30.5t43 -8.5q22 0 39 7.5t28 22.5t13 25z" />
    <glyph glyph-name="d" unicode="d" horiz-adv-x="448" 
d="M223 395q36 0 75 -15v-105q-16 13 -31.5 16.5t-43.5 3.5q-43 0 -66 -25.5t-23 -61.5q0 -38 23.5 -65.5t65.5 -27.5q36 0 63 20.5t32 54.5v420h115v-420q0 -85 -62 -137.5t-148 -52.5q-96 0 -148.5 58t-52.5 139t53 139.5t148 58.5z" />
    <glyph glyph-name="e" unicode="e" horiz-adv-x="432" 
d="M125 200l147 84q-12 6 -20.5 7.5t-13.5 2.5t-11 1q-34 0 -62.5 -21.5t-36.5 -54.5zM197 102q12 -4 27 -4q34 0 61.5 20.5t36.5 55.5q34 -6 67 -12.5t33 -9.5q-11 -67 -69 -110.5t-130 -43.5q-26 0 -73 14t-86 67t-39 120q0 26 10.5 69.5t67 87t127.5 43.5
q25 0 92.5 -19.5t97.5 -125.5l-246 -142q13 -8 23 -10z" />
    <glyph glyph-name="f" unicode="f" horiz-adv-x="219" 
d="M7 361v105q13 0 25.5 0.5t22.5 1.5q0 80 37.5 111t157.5 31v-100q-60 0 -75 -11t-15 -31q0 -3 14 -3q8 0 18.5 0.5t24.5 1.5v-108l-57 -2v-203.5v-143.5h-105v347q0 2 -9 3t-18 1h-21z" />
    <glyph glyph-name="g" unicode="g" horiz-adv-x="460" 
d="M314 205q-5 33 -32.5 54t-62.5 21q-41 0 -65 -28t-24 -65q0 -36 22.5 -61.5t66.5 -25.5q26 0 42.5 3.5t32.5 16.5v-105q-20 -8 -37.5 -11.5t-37.5 -3.5q-96 0 -148.5 58t-52.5 139t53 139.5t148 58.5q84 0 147 -53t63 -137v-305q0 -90 -44.5 -129.5t-150.5 -39.5v104
q48 0 64 15t16 50v305z" />
    <glyph glyph-name="h" unicode="h" horiz-adv-x="389" 
d="M134 610l1 -229q28 13 70 13q72 0 128 -39.5t56 -124.5v-220h-105v220q0 31 -21.5 48t-53.5 17q-30 0 -52.5 -17t-22.5 -48v-220h-105v600h105z" />
    <glyph glyph-name="i" unicode="i" horiz-adv-x="196" 
d="M49 394h105v-384h-105v384zM59 512q-15 17 -15 40q0 24 16 41t43 17q28 0 43 -17t15 -41q0 -23 -14.5 -40t-43.5 -17q-28 0 -44 17z" />
    <glyph glyph-name="j" unicode="j" horiz-adv-x="219" 
d="M87 512q-15 17 -15 40q0 24 16 41t43 17q28 0 43 -17t15 -41q0 -23 -14.5 -40t-43.5 -17q-28 0 -44 17zM181 -100q0 -84 -45.5 -126.5t-149.5 -42.5v100q48 0 69 17.5t21 51.5l1 494h105z" />
    <glyph glyph-name="k" unicode="k" horiz-adv-x="362" 
d="M28 614h105v-341l101 121h137l-166 -198l155 -186h-137l-90 108v-108h-105v604z" />
    <glyph glyph-name="l" unicode="l" horiz-adv-x="172" 
d="M33 610h105v-600h-105v600z" />
    <glyph glyph-name="m" unicode="m" horiz-adv-x="664" 
d="M28 230q0 90 59.5 127.5t116.5 37.5q47 0 77.5 -14t52.5 -29q19 20 51.5 31t67.5 11q76 0 132 -42t56 -122v-220h-105v220q0 31 -22.5 48.5t-52.5 17.5q-31 0 -52.5 -17t-21.5 -49v-220h-105v220q0 31 -21.5 48t-52.5 17t-53 -17t-22 -48v-220h-105v220z" />
    <glyph glyph-name="n" unicode="n" horiz-adv-x="389" 
d="M28 230q0 78 53 121.5t127 43.5t127 -43.5t53 -121.5v-220h-105v220q0 31 -21.5 48t-53.5 17q-30 0 -52.5 -17t-22.5 -48v-220h-105v220z" />
    <glyph glyph-name="o" unicode="o" horiz-adv-x="395" 
d="M58 336q59 62 147 62q42 0 80 -15.5t66 -45t42 -66t14 -73.5q0 -80 -41.5 -124.5t-79.5 -60t-81 -15.5q-89 0 -145.5 61t-56.5 139t55 138zM131 129q29 -30 73 -30q45 0 71.5 28.5t26.5 69.5t-26.5 69.5t-71.5 28.5q-44 0 -71.5 -29.5t-27.5 -68.5t26 -68z" />
    <glyph glyph-name="p" unicode="p" horiz-adv-x="448" 
d="M243 0q-36 0 -75 15v105q16 -13 31.5 -16.5t43.5 -3.5q43 0 66 25.5t23 61.5q0 38 -23.5 65.5t-65.5 27.5q-36 0 -63 -20.5t-32 -54.5v-420h-115v420q0 85 62 137.5t148 52.5q95 0 148 -58.5t53 -139.5q0 -80 -53 -138.5t-148 -58.5z" />
    <glyph glyph-name="q" unicode="q" horiz-adv-x="448" 
d="M219 0q-96 0 -148.5 58t-52.5 139t53 139.5t148 58.5q84 0 147 -53t63 -137v-420h-115v420q-5 33 -32.5 54t-62.5 21q-41 0 -65 -28t-24 -65q0 -36 22.5 -61.5t66.5 -25.5q26 0 42.5 3.5t32.5 16.5v-105q-20 -8 -37.5 -11.5t-37.5 -3.5z" />
    <glyph glyph-name="r" unicode="r" horiz-adv-x="219" 
d="M224 395v-100q-48 0 -69 -17.5t-21 -51.5v-216h-105v216q0 84 45.5 126.5t149.5 42.5z" />
    <glyph glyph-name="s" unicode="s" horiz-adv-x="304" 
d="M8 119q51 0 70.5 26t19.5 65q0 87 31.5 135.5t155.5 48.5v-110q-51 0 -62.5 -18.5t-19 -84.5t-40 -119t-155.5 -53v110z" />
    <glyph glyph-name="t" unicode="t" horiz-adv-x="316" 
d="M214 610l1 -143h93v-105l-94 -1v-351h-105l-1 351h-91v105l92 1v143h105z" />
    <glyph glyph-name="u" unicode="u" horiz-adv-x="389" 
d="M28 162v220h105v-220q0 -31 22 -48t53 -17t53 17t22 48v220h105v-220q0 -78 -53 -121.5t-127 -43.5t-127 43.5t-53 121.5z" />
    <glyph glyph-name="v" unicode="v" horiz-adv-x="350" 
d="M90 93l-78 292h106l50 -183l52 183h108l-78 -292q-13 -49 -27 -71t-55 -22q-36 0 -51.5 24.5t-26.5 68.5z" />
    <glyph glyph-name="w" unicode="w" horiz-adv-x="664" 
d="M28 165v220h105v-220q0 -31 22 -48t53 -17q30 0 52 17t22 48v220h105v-220q0 -31 22 -48.5t52 -17.5t52.5 17.5t22.5 48.5v220h105v-220q0 -79 -56.5 -121.5t-131.5 -42.5q-78 0 -119 42q-22 -14 -53.5 -28.5t-76.5 -14.5q-57 0 -116.5 37.5t-59.5 127.5z" />
    <glyph glyph-name="x" unicode="x" horiz-adv-x="360" 
d="M9 394h121l50 -89l51 89h122l-113 -191l110 -193h-120l-49 88l-51 -88h-119l110 193z" />
    <glyph glyph-name="y" unicode="y" horiz-adv-x="389" 
d="M273 15q-28 -13 -70 -13q-72 0 -128 39.5t-56 124.5v220h105v-220q0 -31 22 -48t53 -17t53 17t22 48v220h105l-2 -486q0 -90 -44.5 -129.5t-150.5 -39.5v104q50 0 70.5 14t20.5 51v115z" />
    <glyph glyph-name="z" unicode="z" horiz-adv-x="312" 
d="M46 289v96h184h11q26 0 32 -10.5t6 -22.5q0 -8 -1 -11.5t-4 -5.5l-109 -198q-2 -5 -4.5 -11.5t-0.5 -9.5q1 -3 4.5 -4t5.5 -2h104v-100h-204q-23 11 -30.5 29.5t-7.5 31.5l2 17l88 163q3 5 8.5 14.5t1.5 15.5t-8.5 7t-7.5 1h-70z" />
    <glyph glyph-name="Ccedilla" unicode="&#xc7;" horiz-adv-x="1000" 
 />
    <glyph glyph-name="bullet" unicode="&#x2022;" horiz-adv-x="261" 
 />
    <glyph glyph-name="germandbls" unicode="&#xdf;" horiz-adv-x="300" 
d="M8 119q73 0 99.5 29t26.5 68q0 12 -2 20t-4.5 17.5t-7.5 33.5t-5 44q0 61 38 100t132 39v-110q-32 0 -45 -14.5t-13 -38.5q0 -17 5 -37t7 -29t3 -14.5t1 -17.5q0 -74 -55 -137t-180 -63v110z" />
    <glyph glyph-name="registered" unicode="&#xae;" horiz-adv-x="552" 
 />
    <glyph glyph-name="copyright" unicode="&#xa9;" horiz-adv-x="552" 
 />
    <glyph glyph-name="trademark" unicode="&#x2122;" horiz-adv-x="750" 
 />
    <glyph glyph-name="nonbreakingspace" unicode="&#xa0;" horiz-adv-x="500" 
 />
    <glyph glyph-name="emdash" unicode="&#x2014;" horiz-adv-x="796" 
 />
    <glyph glyph-name="quotedblleft" unicode="&#x201c;" horiz-adv-x="244" 
d="M54 493q-23 0 -34.5 14t-11.5 37q0 33 22 66t41 38.5t22.5 5.5h4.5q-5 -7 -9 -13q-45 -36 -45 -45t22 -9q17 0 29.5 -14.5t12.5 -33.5q0 -20 -13 -33t-41 -13zM174 493q-23 0 -34.5 14.5t-11.5 38.5q0 34 22 67.5t41 39t22.5 5.5h4.5q-5 -7 -9 -13q-45 -36 -45 -45t22 -9
q18 0 30 -15t12 -35q0 -21 -13 -34.5t-41 -13.5z" />
    <glyph glyph-name="quotedblright" unicode="&#x201d;" horiz-adv-x="244" 
d="M202 663q23 0 34.5 -14t11.5 -37q0 -33 -22 -66t-40.5 -38t-22.5 -5.5t-5 -0.5q4 6 9 13q45 36 45 45t-22 9q-17 0 -29.5 14.5t-12.5 33.5q0 20 13 33t41 13zM82 663q23 0 34.5 -14.5t11.5 -38.5q0 -34 -22 -67.5t-40.5 -38.5t-22.5 -5.5t-5 -0.5q4 6 9 13q45 36 45 45
t-22 9q-18 0 -30 15t-12 35q0 21 13 34.5t41 13.5z" />
    <glyph glyph-name="quoteleft" unicode="&#x2018;" horiz-adv-x="192" 
d="M96 489q-23 0 -34.5 14.5t-11.5 38.5q0 34 22 67.5t41 39t22.5 5.5h4.5q-5 -7 -9 -13q-45 -36 -45 -45t22 -9q18 0 30 -15t12 -35q0 -21 -13 -34.5t-41 -13.5z" />
    <glyph glyph-name="quoteright" unicode="&#x2019;" horiz-adv-x="212" 
d="M118 663q23 0 34.5 -14.5t11.5 -38.5q0 -34 -22 -67.5t-40.5 -38.5t-22.5 -5.5t-5 -0.5q4 6 9 13q45 36 45 45t-22 9q-18 0 -30 15t-12 35q0 21 13 34.5t41 13.5z" />
    <glyph glyph-name="Ucircumflex" unicode="&#xdb;" horiz-adv-x="1000" 
 />
    <glyph glyph-name="Ugrave" unicode="&#xd9;" horiz-adv-x="1000" 
 />
  </font>
</defs>
</svg>
